<svg width="40" height="29" viewBox="0 0 40 29" fill="none" xmlns="http://www.w3.org/2000/svg">
<path d="M27.2727 12.4286C30.2909 12.4286 32.7091 9.65286 32.7091 6.21429C32.7091 2.77571 30.2909 0 27.2727 0C24.2545 0 21.8182 2.77571 21.8182 6.21429C21.8182 9.65286 24.2545 12.4286 27.2727 12.4286ZM12.7273 12.4286C15.7455 12.4286 18.1636 9.65286 18.1636 6.21429C18.1636 2.77571 15.7455 0 12.7273 0C9.70909 0 7.27273 2.77571 7.27273 6.21429C7.27273 9.65286 9.70909 12.4286 12.7273 12.4286ZM12.7273 16.5714C8.49091 16.5714 0 18.995 0 23.8214V29H25.4545V23.8214C25.4545 18.995 16.9636 16.5714 12.7273 16.5714ZM27.2727 16.5714C26.7455 16.5714 26.1455 16.6129 25.5091 16.675C27.6182 18.415 29.0909 20.7557 29.0909 23.8214V29H40V23.8214C40 18.995 31.5091 16.5714 27.2727 16.5714Z" fill="#F9995D"/>
</svg>
