<svg width="39" height="39" viewBox="0 0 39 39" fill="none" xmlns="http://www.w3.org/2000/svg">
<g clip-path="url(#clip0_34_304)">
<path fill-rule="evenodd" clip-rule="evenodd" d="M0 19.3072C0 28.8528 6.9328 36.7904 16 38.4V24.5328H11.2V19.2H16V14.9328C16 10.1328 19.0928 7.4672 23.4672 7.4672C24.8528 7.4672 26.3472 7.68 27.7328 7.8928V12.8H25.28C22.9328 12.8 22.4 13.9728 22.4 15.4672V19.2H27.52L26.6672 24.5328H22.4V38.4C31.4672 36.7904 38.4 28.8544 38.4 19.3072C38.4 8.688 29.76 0 19.2 0C8.64 0 0 8.688 0 19.3072Z" fill="#3D445C"/>
</g>
<defs>
<clipPath id="clip0_34_304">
<rect width="38.4" height="38.4" fill="white"/>
</clipPath>
</defs>
</svg>
